<svg xmlns="http://www.w3.org/2000/svg" version="1.1" xmlns:xlink="http://www.w3.org/1999/xlink" xmlns:svgjs="http://svgjs.dev/svgjs" width="1500" height="284" viewBox="0 0 1500 284"><g transform="matrix(1,0,0,1,-0.9464205390548841,-1.2449771603996567)"><svg viewBox="0 0 396 75" data-background-color="#ffffff" preserveAspectRatio="xMidYMid meet" height="284" width="1500" xmlns="http://www.w3.org/2000/svg" xmlns:xlink="http://www.w3.org/1999/xlink"><g id="tight-bounds" transform="matrix(1,0,0,1,0.2498550223104985,0.3287791796830106)"><svg viewBox="0 0 395.52 74.34244164063396" height="74.34244164063396" width="395.52"><g><svg viewBox="0 0 522.9267412724608 98.2899745787187" height="74.34244164063396" width="395.52"><g><rect width="4.3390180445443445" height="71.47715228047197" x="111.70903724743397" y="13.406411149123365" fill="#010c80" opacity="1" stroke-width="0" stroke="transparent" fill-opacity="1" class="rect-yte-0" data-fill-palette-color="primary" rx="1%" id="yte-0" data-palette-color="#010c80"></rect></g><g transform="matrix(1,0,0,1,127.40674127246089,13.584215010517568)"><svg viewBox="0 0 395.52 71.12154455768356" height="71.12154455768356" width="395.52"><g id="textblocktransform"><svg viewBox="0 0 395.52 71.12154455768356" height="71.12154455768356" width="395.52" id="textblock"><g><svg viewBox="0 0 395.52 48.1145308310992" height="48.1145308310992" width="395.52"><g transform="matrix(1,0,0,1,0,0)"><svg width="395.52" viewBox="5.4 -35.6 300.13 36.300000000000004" height="48.1145308310992" data-palette-color="#010c80"><g class="wordmark-text-0" data-fill-palette-color="primary" id="text-0"><path d="M5.55-35L8.5-34.9 16.35-35Q29.25-35 29.25-25.45L29.25-25.45Q29.25-19.95 25.48-16.9 21.7-13.85 15.8-13.85L15.8-13.85Q13.75-13.85 11.5-14.3L11.5-14.3 11.5-6.75Q11.5-2.65 12.45-0.3L12.45-0.3 12.45 0 5.4 0 5.4-0.35Q6.35-2.9 6.35-7.5L6.35-7.5 6.35-26.65Q6.35-31.9 5.55-34.65L5.55-34.65 5.55-35ZM23.6-24.95L23.6-24.95Q23.6-32.45 16.4-32.45L16.4-32.45Q12.75-32.45 11.6-32.3L11.6-32.3Q11.5-30.95 11.5-23.5L11.5-23.5 11.5-16.65Q13.45-16.1 15.55-16.1L15.55-16.1Q19.5-16.1 21.55-18.43 23.6-20.75 23.6-24.95ZM47.65-5.3L47.65-10Q45.6-10.75 42.92-10.75 40.25-10.75 39.05-9.9L39.05-9.9Q38.3-8.75 38.3-6.83 38.3-4.9 39.35-3.8 40.4-2.7 41.97-2.7 43.55-2.7 45.2-3.53 46.85-4.35 47.65-5.3L47.65-5.3ZM48.45-2.8L48.45-2.8Q45.4 0.55 41.57 0.55 37.75 0.55 35.57-1.1 33.4-2.75 33.4-6.43 33.4-10.1 35.97-11.7 38.55-13.3 43.25-13.3L43.25-13.3 47.65-13.15 47.65-16Q47.65-18.65 46.35-20.3 45.05-21.95 42.4-21.95L42.4-21.95Q40.45-21.9 36.15-18.2L36.15-18.2Q34.7-20.05 34.1-23L34.1-23Q39.05-24.6 43.2-24.6 47.35-24.6 49.85-22.45 52.35-20.3 52.35-16.35L52.35-16.35 52.35-7.95Q52.4-5.7 53.07-3.78 53.75-1.85 54.85-1.1L54.85-1.1 54.95-0.6 49.6 0.7Q48.95-0.9 48.45-2.8ZM65.7-15L69.05-5.3Q72.95-16.5 73.95-20.55L73.95-20.55Q72.95-22.9 72.5-23.25L72.5-23.25 72.5-23.85 78.95-24.2 78.95-23.6Q78.95-22.15 81.5-14.65L81.5-14.65 84.75-5.05Q88.05-15.2 88.59-17.35L88.59-17.35Q89.65-20.85 89.65-23.4L89.65-23.4 89.65-24 94.55-24 94.55-23.4Q93.3-22.25 92.15-18.55L92.15-18.55 87.15-2.2 86.5 0.45 81.8 0.55 80.95-2.3 75.8-15.65 71.3-2.2 70.75 0.45 66 0.55 65.15-2.3 58.6-18.75Q57.2-22.4 56.05-23.15L56.05-23.15 56.05-23.75 63.25-24.35 63.25-23.75Q63.25-22 65.7-15L65.7-15ZM102.54-21.45L102.54-21.45Q101.64-20.55 101.64-18.98 101.64-17.4 102.64-16.53 103.64-15.65 105.17-15.25 106.69-14.85 108.44-14.25 110.19-13.65 111.72-12.98 113.24-12.3 114.24-10.8 115.24-9.3 115.24-7.15L115.24-7.15Q115.24-3.35 112.44-1.4 109.64 0.55 105.07 0.55 100.49 0.55 96.94-1.8L96.94-1.8Q97.09-4.35 98.44-6.35L98.44-6.35Q102.94-2.25 106.64-2.25L106.64-2.25Q108.24-2.25 109.49-2.9L109.49-2.9Q110.69-3.95 110.69-5.73 110.69-7.5 109.32-8.47 107.94-9.45 105.99-10 104.04-10.55 102.09-11.25 100.14-11.95 98.77-13.45 97.39-14.95 97.39-17.35L97.39-17.35Q97.39-20.85 100.02-22.73 102.64-24.6 106.64-24.6 110.64-24.6 114.49-22.9L114.49-22.9Q114.04-20.7 112.74-18.5L112.74-18.5Q109.19-22.05 105.34-22.05L105.34-22.05Q103.69-22.05 102.54-21.45ZM125.49-18.75L125.49-18.75Q125.49-11.55 128.97-7.55 132.44-3.55 137.59-3.55L137.59-3.55Q141.34-3.55 147.54-6.95L147.54-6.95 148.89-4.9Q146.59-3.2 145.32-2.45 144.04-1.7 142.44-0.9L142.44-0.9Q139.19 0.65 135.49 0.65L135.49 0.65Q128.99 0.65 124.42-4.2 119.84-9.05 119.84-17.2 119.84-25.35 125.14-30.48 130.44-35.6 138.29-35.6L138.29-35.6Q143.54-35.6 148.14-33.2L148.14-33.2Q147.54-30.05 146.04-27.9L146.04-27.9Q140.89-32.05 134.89-32.05L134.89-32.05Q133.09-32.05 131.39-31.7L131.39-31.7Q128.84-29.8 127.17-26.55 125.49-23.3 125.49-18.75ZM163.84 0.6Q158.59 0.6 155.54-2.73 152.49-6.05 152.49-11.43 152.49-16.8 156.04-20.7 159.59-24.6 164.96-24.6 170.34-24.6 173.26-21.35 176.19-18.1 176.19-12.65 176.19-7.2 172.64-3.3 169.09 0.6 163.84 0.6ZM170.89-11.4L170.89-11.4Q170.89-16.35 169.34-19.05 167.79-21.75 163.84-21.75L163.84-21.75Q161.29-21.75 159.84-20.65L159.84-20.65Q158.94-19.5 158.36-17.15 157.79-14.8 157.79-12.65L157.79-12.65Q157.79-2.2 165.19-2.2L165.19-2.2Q167.49-2.2 168.94-3.25L168.94-3.25Q169.89-4.4 170.39-6.8 170.89-9.2 170.89-11.4ZM196.84-24.6L196.84-24.6Q200.44-24.6 202.41-22.3 204.39-20 204.39-15.7L204.39-15.7 204.39-8.5Q204.39-3.75 205.89-0.35L205.89-0.35 205.89 0 198.84 0 198.84-0.35Q199.69-2.85 199.69-7L199.69-7 199.69-14.65Q199.69-17.55 198.81-19.03 197.94-20.5 195.29-20.5 192.64-20.5 188.49-17.95L188.49-17.95 188.49-8.5Q188.49-3.65 189.94-0.35L189.94-0.35 189.94 0 182.94 0 182.94-0.35Q183.79-2.85 183.79-7L183.79-7 183.79-15.5Q183.79-17.65 182.91-19.73 182.04-21.8 180.89-22.5L180.89-22.5 180.84-23.1 187.39-24.65 187.69-24.15Q188.09-22.3 188.29-20.4L188.29-20.4Q190.14-21.85 191.16-22.55 192.19-23.25 193.79-23.93 195.39-24.6 196.84-24.6ZM227.08-24.6L227.08-24.6Q230.68-24.6 232.66-22.3 234.63-20 234.63-15.7L234.63-15.7 234.63-8.5Q234.63-3.75 236.13-0.35L236.13-0.35 236.13 0 229.08 0 229.08-0.35Q229.93-2.85 229.93-7L229.93-7 229.93-14.65Q229.93-17.55 229.06-19.03 228.18-20.5 225.53-20.5 222.88-20.5 218.73-17.95L218.73-17.95 218.73-8.5Q218.73-3.65 220.18-0.35L220.18-0.35 220.18 0 213.18 0 213.18-0.35Q214.03-2.85 214.03-7L214.03-7 214.03-15.5Q214.03-17.65 213.16-19.73 212.28-21.8 211.13-22.5L211.13-22.5 211.08-23.1 217.63-24.65 217.93-24.15Q218.33-22.3 218.53-20.4L218.53-20.4Q220.38-21.85 221.41-22.55 222.43-23.25 224.03-23.93 225.63-24.6 227.08-24.6ZM252.23 0.55L252.23 0.55Q246.98 0.55 244.03-2.7 241.08-5.95 241.08-11.28 241.08-16.6 244.38-20.6 247.68-24.6 252.58-24.6L252.58-24.6Q261.53-24.6 261.53-13.55L261.53-13.55 259.68-11.75 246.38-11.75Q246.38-7.55 248.18-5.45 249.98-3.35 253.03-3.35L253.03-3.35Q254.23-3.35 256.43-4.08 258.63-4.8 260.33-5.8L260.33-5.8 261.58-3.9Q260.63-2.95 257.46-1.2 254.28 0.55 252.23 0.55ZM251.68-22.1L251.68-22.1Q249.58-22.1 248.43-21.15L248.43-21.15Q247.48-19.85 246.93-17.85 246.38-15.85 246.38-14.35L246.38-14.35 256.63-14.75Q256.63-22.1 251.68-22.1ZM274.63-21.2Q272.98-20.2 272.03-17.73 271.08-15.25 271.08-11.83 271.08-8.4 272.45-5.85 273.83-3.3 276.83-3.3L276.83-3.3Q278.83-3.3 281.48-4.23 284.13-5.15 284.98-5.8L284.98-5.8 286.23-3.85Q279.83 0.55 276.53 0.55L276.53 0.55Q271.53 0.55 268.65-2.85 265.78-6.25 265.78-11.75 265.78-17.25 269.5-20.95 273.23-24.65 278-24.65 282.78-24.65 285.93-22.5L285.93-22.5Q283.98-19.4 283.38-18.75L283.38-18.75Q279.98-21.35 276.88-21.35L276.88-21.35Q275.73-21.35 274.63-21.2L274.63-21.2ZM298.18-21.2L298.18-5.6Q298.18-2.95 299.78-2.95L299.78-2.95Q301.13-2.95 304.33-4.55L304.33-4.55 305.38-2.8Q303.78-1.7 301.38-0.58 298.98 0.55 296.98 0.55 294.98 0.55 294.23-0.7 293.48-1.95 293.48-4.3L293.48-4.3 293.48-21.15 288.98-20.9 290.18-24.15Q291.08-24.05 293.38-23.95L293.38-23.95Q293.28-26.45 293.08-28.45L293.08-28.45 298.18-29.75 298.18-24Q300.88-24.1 305.53-24.6L305.53-24.6 304.13-20.7Q301.43-21.1 298.18-21.2L298.18-21.2Z" fill="#010c80" data-fill-palette-color="primary"></path></g></svg></g></svg></g><g transform="matrix(1,0,0,1,0,59.47321681158178)"><svg viewBox="0 0 232.209792 11.64832774610178" height="11.64832774610178" width="232.209792"><g transform="matrix(1,0,0,1,0,0)"><svg width="232.209792" viewBox="3.13 -36.79 973.79 48.85" height="11.64832774610178" data-palette-color="#010c80"><path d="M3.13-17.14L3.13-17.14Q3.13-22.75 5.18-26.84 7.23-30.93 11.25-33.17 15.28-35.4 21.22-35.4L21.22-35.4Q22.58-35.4 24.41-35.24 26.25-35.08 27.99-34.72 29.74-34.35 30.88-33.74 32.03-33.13 32.03-32.2L32.03-32.2Q32.03-31.76 31.74-31.25L31.74-31.25 29.69-27.81Q28.61-28.42 27.03-29.44 25.44-30.47 23.49-31.31 21.53-32.15 19.34-32.15L19.34-32.15Q16.46-32.15 14.54-30.82 12.62-29.49 11.51-27.33 10.4-25.17 9.94-22.63 9.47-20.09 9.47-17.7L9.47-17.7Q9.47-13.77 10.9-10.38 12.33-6.98 15.21-4.9 18.09-2.81 22.44-2.81L22.44-2.81Q24.24-2.81 26.04-3.11 27.83-3.42 29.3-3.83 30.76-4.25 31.64-4.55 32.52-4.86 32.52-4.86L32.52-4.86 33.52-2.95Q30.79-0.81 27.45 0.07 24.12 0.95 20.63 0.95L20.63 0.95Q15.28 0.95 11.35-1.26 7.42-3.47 5.27-7.53 3.13-11.6 3.13-17.14ZM64.01-12.45L64.01-12.45Q64.01-8.47 62.22-5.51 60.42-2.54 57.39-0.89 54.37 0.76 50.63 0.76L50.63 0.76Q46.87 0.76 43.82-0.9 40.77-2.56 38.97-5.53 37.18-8.5 37.18-12.45L37.18-12.45Q37.18-16.46 38.97-19.45 40.77-22.44 43.82-24.1 46.87-25.76 50.63-25.76L50.63-25.76Q54.39-25.76 57.42-24.1 60.45-22.44 62.23-19.45 64.01-16.46 64.01-12.45ZM43.21-12.5L43.21-12.5Q43.21-9.74 43.82-7.3 44.43-4.86 46.04-3.36 47.65-1.86 50.63-1.86L50.63-1.86Q53.61-1.86 55.2-3.36 56.78-4.86 57.38-7.3 57.98-9.74 57.98-12.5L57.98-12.5Q57.98-15.28 57.38-17.71 56.78-20.14 55.2-21.64 53.61-23.14 50.63-23.14L50.63-23.14Q47.65-23.14 46.04-21.64 44.43-20.14 43.82-17.71 43.21-15.28 43.21-12.5ZM72.77-1.9L72.77-22.56 68.48-22.56 68.48-24.39Q69.16-24.71 70.53-24.93 71.89-25.15 73.48-25.27 75.07-25.39 76.34-25.39L76.34-25.39Q77.34-25.39 77.89-25.23 78.44-25.07 78.44-24.1L78.44-24.1 78.44-22.9Q78.93-23.07 80.49-23.77 82.05-24.46 84.24-25.11 86.42-25.76 88.74-25.76L88.74-25.76Q91.57-25.76 93.01-24.74 94.45-23.73 94.97-21.98 95.48-20.24 95.48-17.99L95.48-17.99 95.48-2.44 99.73-2.44 99.73-0.61Q98.9-0.15 96.99 0.15 95.09 0.44 93.33 0.44L93.33 0.44Q91.84 0.44 90.84 0.01 89.84-0.42 89.84-1.9L89.84-1.9 89.84-17.5Q89.84-19.97 89.18-21.06 88.52-22.14 86.42-22.14L86.42-22.14Q85.42-22.14 84.11-21.94 82.81-21.73 81.55-21.46 80.29-21.19 79.43-20.97 78.56-20.75 78.44-20.7L78.44-20.7 78.44-7.35Q78.44-4.35 78.71-2.69 78.97-1.03 79.12-0.34L79.12-0.34Q78.46 0.02 77.44 0.23 76.41 0.44 75.63 0.44L75.63 0.44Q74.38 0.44 73.58-0.06 72.77-0.56 72.77-1.9L72.77-1.9ZM107.19-1.9L107.19-22.56 102.9-22.56 102.9-24.39Q103.58-24.71 104.95-24.93 106.32-25.15 107.9-25.27 109.49-25.39 110.76-25.39L110.76-25.39Q111.76-25.39 112.31-25.23 112.86-25.07 112.86-24.1L112.86-24.1 112.86-22.9Q113.35-23.07 114.91-23.77 116.47-24.46 118.66-25.11 120.84-25.76 123.16-25.76L123.16-25.76Q125.99-25.76 127.43-24.74 128.87-23.73 129.39-21.98 129.9-20.24 129.9-17.99L129.9-17.99 129.9-2.44 134.15-2.44 134.15-0.61Q133.32-0.15 131.41 0.15 129.51 0.44 127.75 0.44L127.75 0.44Q126.26 0.44 125.26 0.01 124.26-0.42 124.26-1.9L124.26-1.9 124.26-17.5Q124.26-19.97 123.6-21.06 122.94-22.14 120.84-22.14L120.84-22.14Q119.84-22.14 118.53-21.94 117.23-21.73 115.97-21.46 114.71-21.19 113.85-20.97 112.98-20.75 112.86-20.7L112.86-20.7 112.86-7.35Q112.86-4.35 113.13-2.69 113.4-1.03 113.54-0.34L113.54-0.34Q112.88 0.02 111.86 0.23 110.83 0.44 110.05 0.44L110.05 0.44Q108.81 0.44 108-0.06 107.19-0.56 107.19-1.9L107.19-1.9ZM138.54-12.5L138.54-12.5Q138.54-16.38 140.19-19.37 141.84-22.36 144.92-24.06 148.01-25.76 152.33-25.76L152.33-25.76Q155.58-25.76 157.91-24.41 160.24-23.07 161.49-20.9 162.73-18.73 162.73-16.21L162.73-16.21Q162.73-15.06 162.44-13.92 162.15-12.77 161.33-12.01 160.51-11.25 158.88-11.25L158.88-11.25 144.28-11.25Q144.77-6.86 147.74-4.53 150.72-2.2 155.02-2.2L155.02-2.2Q158.02-2.2 161.27-3.25L161.27-3.25 162.07-1.61Q160.1-0.27 157.56 0.34 155.02 0.95 152.58 0.95L152.58 0.95Q149.89 0.95 147.38 0.11 144.86-0.73 142.87-2.42 140.88-4.1 139.71-6.62 138.54-9.13 138.54-12.5ZM144.23-14.26L156.87-14.26Q157.02-14.75 157.07-15.23 157.12-15.72 157.12-16.26L157.12-16.26Q157.12-17.87 156.42-19.43 155.73-21 154.37-22.02 153.02-23.05 151.04-23.05L151.04-23.05Q148.55-23.05 147.1-21.81 145.64-20.58 145-18.58 144.35-16.58 144.23-14.26L144.23-14.26ZM189.95-23.05L188.22-19.8Q186.61-20.73 184.41-21.79 182.21-22.85 180.07-22.85L180.07-22.85Q177.87-22.85 176.51-21.46 175.16-20.07 174.54-18.01 173.91-15.94 173.91-13.89L173.91-13.89Q173.91-10.69 175.05-8.08 176.18-5.47 178.55-3.93 180.92-2.39 184.56-2.39L184.56-2.39Q187.51-2.39 190.95-3.44L190.95-3.44 191.76-1.81Q189.76-0.46 187.18 0.15 184.61 0.76 182.17 0.76L182.17 0.76Q179.5 0.76 177.01-0.09 174.52-0.93 172.56-2.56 170.59-4.2 169.43-6.58 168.27-8.96 168.27-12.06L168.27-12.06Q168.27-16.33 170.23-19.4 172.18-22.46 175.55-24.11 178.92-25.76 183.17-25.76L183.17-25.76Q183.53-25.76 184.63-25.67 185.73-25.59 186.99-25.35 188.24-25.12 189.16-24.68 190.08-24.24 190.08-23.56L190.08-23.56Q190.08-23.19 189.95-23.05L189.95-23.05ZM214.36-3.39L215.15-1.71Q213.44-0.66 211.64 0.05 209.85 0.76 207.11 0.76L207.11 0.76Q203.55 0.76 201.47-1.37 199.4-3.49 199.4-7.25L199.4-7.25 199.4-22 194.35-22 194.35-23.1Q194.35-24.19 194.82-24.6 195.3-25 196.35-25L196.35-25 199.4-25 199.4-30.81Q199.4-32.15 200.2-32.63 201.01-33.11 202.26-33.11L202.26-33.11Q203.04-33.11 204.06-32.92 205.09-32.74 205.75-32.35L205.75-32.35Q205.6-31.67 205.33-29.98 205.06-28.3 205.06-25L205.06-25 213.56-25 213.56-23.95Q213.56-22.88 213.08-22.44 212.61-22 211.56-22L211.56-22 205.06-22 205.06-7.69Q205.06-2.15 209.12-2.15L209.12-2.15Q210.34-2.15 211.56-2.49 212.78-2.83 213.58-3.15 214.39-3.47 214.36-3.39L214.36-3.39ZM221.42-33.5L221.42-33.5Q221.42-34.89 222.43-35.84 223.44-36.79 224.86-36.79L224.86-36.79Q226.3-36.79 227.3-35.84 228.3-34.89 228.3-33.5L228.3-33.5Q228.3-32.15 227.3-31.2 226.3-30.25 224.86-30.25L224.86-30.25Q223.44-30.25 222.43-31.2 221.42-32.15 221.42-33.5ZM227.67-24.15L227.67-2.44 231.92-2.44 231.92-0.61Q231.09-0.15 229.18 0.15 227.28 0.44 225.52 0.44L225.52 0.44Q224.03 0.44 223.02 0.01 222-0.42 222-1.9L222-1.9 222-22.61 217.71-22.61 217.71-24.44Q218.39-24.76 219.76-24.98 221.13-25.2 222.71-25.32 224.3-25.44 225.57-25.44L225.57-25.44Q226.57-25.44 227.12-25.28 227.67-25.12 227.67-24.15L227.67-24.15ZM239.48-1.9L239.48-22.56 235.19-22.56 235.19-24.39Q235.87-24.71 237.24-24.93 238.6-25.15 240.19-25.27 241.78-25.39 243.05-25.39L243.05-25.39Q244.05-25.39 244.6-25.23 245.15-25.07 245.15-24.1L245.15-24.1 245.15-22.9Q245.63-23.07 247.2-23.77 248.76-24.46 250.94-25.11 253.13-25.76 255.45-25.76L255.45-25.76Q258.28-25.76 259.72-24.74 261.16-23.73 261.67-21.98 262.19-20.24 262.19-17.99L262.19-17.99 262.19-2.44 266.44-2.44 266.44-0.61Q265.61-0.15 263.7 0.15 261.8 0.44 260.04 0.44L260.04 0.44Q258.55 0.44 257.55 0.01 256.55-0.42 256.55-1.9L256.55-1.9 256.55-17.5Q256.55-19.97 255.89-21.06 255.23-22.14 253.13-22.14L253.13-22.14Q252.13-22.14 250.82-21.94 249.52-21.73 248.26-21.46 247-21.19 246.13-20.97 245.27-20.75 245.15-20.7L245.15-20.7 245.15-7.35Q245.15-4.35 245.41-2.69 245.68-1.03 245.83-0.34L245.83-0.34Q245.17 0.02 244.15 0.23 243.12 0.44 242.34 0.44L242.34 0.44Q241.09 0.44 240.29-0.06 239.48-0.56 239.48-1.9L239.48-1.9ZM273.76 3.3L273.76 3.3Q275.56 6.01 278.09 7.51 280.62 9.01 284.3 9.01L284.3 9.01Q285.26 9.01 286.45 8.86 287.65 8.72 288.75 8.31 289.85 7.91 290.57 7.15 291.29 6.4 291.29 5.2L291.29 5.2Q291.29 4.13 290.26 3.52 289.24 2.91 287.54 2.56 285.84 2.22 283.82 1.97 281.79 1.71 279.76 1.34 277.74 0.98 276.04 0.33 274.34-0.32 273.32-1.45 272.29-2.59 272.29-4.39L272.29-4.39Q272.29-5.71 272.9-6.48 273.51-7.25 274.39-7.74 275.27-8.23 276.05-8.64L276.05-8.64Q273.9-9.86 272.67-11.84 271.44-13.82 271.44-16.41L271.44-16.41Q271.44-19.31 272.96-21.4 274.49-23.49 277.1-24.62 279.71-25.76 282.99-25.76L282.99-25.76Q286.06-25.76 288.59-24.72 291.12-23.68 292.65-21.8L292.65-21.8 294.09-23.61Q295.71-25.59 296.78-26.17 297.85-26.76 299.2-26.76L299.2-26.76Q299.83-26.76 300.66-26.38 301.49-26 301.49-25.15L301.49-25.15 301.49-21.85Q299.25-21.85 297.87-21.78 296.49-21.7 295.57-21.3 294.66-20.9 293.75-19.95L293.75-19.95Q294.12-19.12 294.33-18.26 294.53-17.41 294.53-16.36L294.53-16.36Q294.53-13.48 293.02-11.38 291.51-9.28 288.89-8.14 286.28-7.01 282.99-7.01L282.99-7.01Q280.45-7.01 278.2-7.69L278.2-7.69Q276.2-6.67 276.2-5.54L276.2-5.54Q276.2-4.42 277.3-3.87 278.4-3.32 280.2-3.06 282.01-2.81 284.17-2.62 286.33-2.44 288.5-2.12 290.68-1.81 292.48-1.11 294.29-0.42 295.39 0.87 296.49 2.15 296.49 4.3L296.49 4.3Q296.49 6.88 294.62 8.61 292.75 10.33 289.8 11.17 286.84 12.01 283.6 12.01L283.6 12.01Q281.03 12.01 278.49 11.54 275.95 11.06 273.84 10.24 271.73 9.42 270.46 8.37 269.19 7.32 269.19 6.15L269.19 6.15Q269.19 5.44 270.25 4.82 271.32 4.2 273.76 3.3ZM277.2-16.41L277.2-16.41Q277.2-13.16 278.62-11.3 280.03-9.45 282.99-9.45L282.99-9.45Q285.96-9.45 287.38-11.3 288.8-13.16 288.8-16.41L288.8-16.41Q288.8-19.68 287.38-21.48 285.96-23.29 282.99-23.29L282.99-23.29Q280.03-23.29 278.62-21.48 277.2-19.68 277.2-16.41ZM318.23-17.14L318.23-17.14Q318.23-22.75 320.29-26.84 322.34-30.93 326.36-33.17 330.39-35.4 336.33-35.4L336.33-35.4Q337.69-35.4 339.52-35.24 341.35-35.08 343.1-34.72 344.85-34.35 345.99-33.74 347.14-33.13 347.14-32.2L347.14-32.2Q347.14-31.76 346.85-31.25L346.85-31.25 344.8-27.81Q343.72-28.42 342.14-29.44 340.55-30.47 338.6-31.31 336.64-32.15 334.45-32.15L334.45-32.15Q331.56-32.15 329.65-30.82 327.73-29.49 326.62-27.33 325.51-25.17 325.05-22.63 324.58-20.09 324.58-17.7L324.58-17.7Q324.58-13.77 326.01-10.38 327.44-6.98 330.32-4.9 333.2-2.81 337.55-2.81L337.55-2.81Q339.35-2.81 341.15-3.11 342.94-3.42 344.41-3.83 345.87-4.25 346.75-4.55 347.63-4.86 347.63-4.86L347.63-4.86 348.63-2.95Q345.9-0.81 342.56 0.07 339.23 0.95 335.74 0.95L335.74 0.95Q330.39 0.95 326.46-1.26 322.53-3.47 320.38-7.53 318.23-11.6 318.23-17.14ZM379.12-12.45L379.12-12.45Q379.12-8.47 377.33-5.51 375.53-2.54 372.5-0.89 369.48 0.76 365.74 0.76L365.74 0.76Q361.98 0.76 358.93-0.9 355.88-2.56 354.08-5.53 352.29-8.5 352.29-12.45L352.29-12.45Q352.29-16.46 354.08-19.45 355.88-22.44 358.93-24.1 361.98-25.76 365.74-25.76L365.74-25.76Q369.5-25.76 372.53-24.1 375.56-22.44 377.34-19.45 379.12-16.46 379.12-12.45ZM358.32-12.5L358.32-12.5Q358.32-9.74 358.93-7.3 359.54-4.86 361.15-3.36 362.76-1.86 365.74-1.86L365.74-1.86Q368.72-1.86 370.31-3.36 371.89-4.86 372.49-7.3 373.09-9.74 373.09-12.5L373.09-12.5Q373.09-15.28 372.49-17.71 371.89-20.14 370.31-21.64 368.72-23.14 365.74-23.14L365.74-23.14Q362.76-23.14 361.15-21.64 359.54-20.14 358.93-17.71 358.32-15.28 358.32-12.5ZM409.68-18.19L409.68-7.35Q409.68-4.35 409.97-2.69 410.25-1.03 410.39-0.34L410.39-0.34Q409.71 0.02 408.7 0.23 407.68 0.44 406.9 0.44L406.9 0.44Q405.66 0.44 404.85-0.06 404.04-0.56 404.04-1.9L404.04-1.9 404.04-17.85Q404.04-19.85 403.62-20.97 403.19-22.09 401.19-22.09L401.19-22.09Q400.21-22.09 398.91-21.89 397.6-21.68 396.37-21.4 395.13-21.12 394.33-20.91 393.52-20.7 393.55-20.7L393.55-20.7 393.55-7.35Q393.55-4.35 393.82-2.69 394.08-1.03 394.23-0.34L394.23-0.34Q393.57 0.02 392.55 0.23 391.52 0.44 390.74 0.44L390.74 0.44Q389.49 0.44 388.69-0.06 387.88-0.56 387.88-1.9L387.88-1.9 387.88-22.56 383.59-22.56 383.59-24.39Q384.27-24.71 385.64-24.93 387-25.15 388.59-25.27 390.18-25.39 391.45-25.39L391.45-25.39Q392.45-25.39 393-25.23 393.55-25.07 393.55-24.1L393.55-24.1 393.55-22.9Q393.55-22.88 394.46-23.29 395.38-23.71 396.88-24.29 398.38-24.88 400.14-25.32 401.9-25.76 403.58-25.76L403.58-25.76Q405.29-25.76 406.83-25.17 408.37-24.58 409-22.9L409-22.9Q409-22.88 409.94-23.29 410.88-23.71 412.39-24.29 413.91-24.88 415.69-25.32 417.47-25.76 419.18-25.76L419.18-25.76Q422.06-25.76 423.49-24.79 424.92-23.83 425.38-22.13 425.85-20.43 425.85-18.19L425.85-18.19 425.85-2.44 430.09-2.44 430.09-0.61Q429.26-0.15 427.36 0.15 425.46 0.44 423.7 0.44L423.7 0.44Q422.21 0.44 421.2 0.01 420.18-0.42 420.18-1.9L420.18-1.9 420.18-17.85Q420.18-19.85 419.76-20.97 419.33-22.09 417.35-22.09L417.35-22.09Q416.74-22.09 415.64-21.95 414.54-21.8 413.32-21.58 412.1-21.36 411.08-21.14 410.05-20.92 409.54-20.8L409.54-20.8Q409.68-19.6 409.68-18.19L409.68-18.19ZM443.93 11.25L443.93 11.25Q443.28 11.62 442.25 11.84 441.22 12.06 440.44 12.06L440.44 12.06Q439.2 12.06 438.39 11.5 437.59 10.94 437.59 9.59L437.59 9.59 437.59-22.56 433.24-22.56 433.24-24.39Q433.92-24.71 435.3-24.93 436.68-25.15 438.28-25.27 439.88-25.39 441.15-25.39L441.15-25.39Q442.15-25.39 442.7-25.23 443.25-25.07 443.25-24.1L443.25-24.1 443.25-22.95Q444.69-24 447.01-24.88 449.33-25.76 451.94-25.76L451.94-25.76Q454.95-25.76 456.98-24.62 459.02-23.49 460.24-21.59 461.46-19.7 462-17.36 462.54-15.01 462.54-12.6L462.54-12.6Q462.54-10.13 461.84-7.75 461.15-5.37 459.74-3.45 458.34-1.54 456.22-0.39 454.09 0.76 451.23 0.76L451.23 0.76Q448.92 0.76 447.11 0.16 445.3-0.44 444.28-1.04 443.25-1.64 443.25-1.66L443.25-1.66 443.25 4.25Q443.25 7.25 443.52 8.91 443.79 10.57 443.93 11.25ZM443.25-20.51L443.25-4.59Q444.64-3.81 446.32-3 447.99-2.2 449.84-2.2L449.84-2.2Q452.11-2.2 453.58-3.63 455.04-5.05 455.74-7.43 456.43-9.81 456.43-12.65L456.43-12.65Q456.43-17.38 455.35-20.12 454.26-22.85 451.14-22.85L451.14-22.85Q449.84-22.85 448.46-22.5 447.08-22.14 445.9-21.68 444.72-21.22 443.98-20.86 443.25-20.51 443.25-20.51L443.25-20.51ZM484.46-1.9L484.46-2.15Q484.46-2.17 483.76-1.73 483.07-1.29 481.88-0.71 480.7-0.12 479.26 0.32 477.82 0.76 476.31 0.76L476.31 0.76Q474.18 0.76 472.37-0.01 470.57-0.78 469.47-2.4 468.37-4.03 468.37-6.54L468.37-6.54Q468.37-9.35 469.99-11.04 471.62-12.72 474.47-13.46 477.33-14.21 481.02-14.21L481.02-14.21 484.46-14.21 484.46-16.04Q484.46-17.94 484.22-19.58 483.97-21.22 483.15-22.2 482.34-23.19 480.6-23.19L480.6-23.19Q478.97-23.19 477.29-22.44 475.62-21.68 474.11-20.61 472.59-19.53 471.37-18.55L471.37-18.55 469.37-21.24Q469.01-21.68 469.01-22.14L469.01-22.14Q469.01-22.95 470.01-23.61 471.01-24.27 472.57-24.76 474.13-25.24 475.88-25.5 477.62-25.76 479.11-25.76L479.11-25.76Q482.12-25.76 484.62-24.79 487.12-23.83 488.62-21.69 490.12-19.56 490.12-16.04L490.12-16.04 490.12-2.44 494.37-2.44 494.37-0.61Q493.54-0.15 491.64 0.15 489.73 0.44 487.95 0.44L487.95 0.44Q486.75 0.44 485.64 0.04 484.53-0.37 484.46-1.9L484.46-1.9ZM478.01-2.86L478.01-2.86Q478.87-2.86 479.97-3.08 481.07-3.3 482.09-3.6 483.12-3.91 483.79-4.13 484.46-4.35 484.46-4.35L484.46-4.35 484.46-11.21 480.36-11.21Q479.14-11.21 477.64-10.88 476.13-10.55 475.05-9.61 473.96-8.67 473.96-6.81L473.96-6.81Q473.96-5.08 475.01-3.97 476.06-2.86 478.01-2.86ZM497.96-3.2L499.91-5.91Q500.79-5.27 502.15-4.32 503.5-3.37 505.15-2.64 506.8-1.9 508.5-1.9L508.5-1.9Q510.12-1.9 511.39-2.84 512.66-3.78 512.66-5.49L512.66-5.49Q512.66-6.84 511.58-7.75 510.51-8.67 509.07-9.31 507.63-9.96 506.5-10.45L506.5-10.45Q504.6-11.3 502.76-12.28 500.91-13.26 499.7-14.78 498.5-16.31 498.5-18.8L498.5-18.8Q498.5-21.31 500.09-22.84 501.69-24.37 504.09-25.06 506.48-25.76 508.9-25.76L508.9-25.76Q510.41-25.76 512.07-25.57 513.73-25.39 514.89-24.98 516.05-24.56 516.05-23.85L516.05-23.85Q516.05-23.68 515.9-23.34L515.9-23.34 514.24-20.14Q513.63-20.56 512.45-21.2 511.26-21.85 509.79-22.38 508.31-22.9 506.75-22.9L506.75-22.9Q505.06-22.9 503.99-22.12 502.91-21.34 502.91-19.9L502.91-19.9Q502.91-18.41 503.99-17.41 505.06-16.41 506.75-15.66 508.43-14.92 510.31-14.21 512.19-13.5 513.88-12.59 515.56-11.67 516.63-10.33 517.71-8.98 517.71-6.96L517.71-6.96Q517.71-4.81 516.79-3.33 515.88-1.86 514.38-0.95 512.88-0.05 511.07 0.35 509.26 0.76 507.5 0.76L507.5 0.76Q505.99 0.76 504.31 0.43 502.62 0.1 501.14-0.42 499.67-0.93 498.74-1.5 497.81-2.08 497.81-2.59L497.81-2.59Q497.81-2.91 497.96-3.2L497.96-3.2ZM522.91-3.2L524.86-5.91Q525.74-5.27 527.09-4.32 528.45-3.37 530.1-2.64 531.74-1.9 533.45-1.9L533.45-1.9Q535.06-1.9 536.33-2.84 537.6-3.78 537.6-5.49L537.6-5.49Q537.6-6.84 536.53-7.75 535.46-8.67 534.02-9.31 532.57-9.96 531.45-10.45L531.45-10.45Q529.55-11.3 527.7-12.28 525.86-13.26 524.65-14.78 523.44-16.31 523.44-18.8L523.44-18.8Q523.44-21.31 525.04-22.84 526.64-24.37 529.03-25.06 531.43-25.76 533.84-25.76L533.84-25.76Q535.36-25.76 537.02-25.57 538.68-25.39 539.84-24.98 541-24.56 541-23.85L541-23.85Q541-23.68 540.85-23.34L540.85-23.34 539.19-20.14Q538.58-20.56 537.4-21.2 536.21-21.85 534.74-22.38 533.26-22.9 531.7-22.9L531.7-22.9Q530.01-22.9 528.94-22.12 527.86-21.34 527.86-19.9L527.86-19.9Q527.86-18.41 528.94-17.41 530.01-16.41 531.7-15.66 533.38-14.92 535.26-14.21 537.14-13.5 538.82-12.59 540.51-11.67 541.58-10.33 542.66-8.98 542.66-6.96L542.66-6.96Q542.66-4.81 541.74-3.33 540.83-1.86 539.33-0.95 537.82-0.05 536.02 0.35 534.21 0.76 532.45 0.76L532.45 0.76Q530.94 0.76 529.25 0.43 527.57 0.1 526.09-0.42 524.62-0.93 523.69-1.5 522.76-2.08 522.76-2.59L522.76-2.59Q522.76-2.91 522.91-3.2L522.91-3.2ZM550.42-33.5L550.42-33.5Q550.42-34.89 551.43-35.84 552.45-36.79 553.86-36.79L553.86-36.79Q555.3-36.79 556.3-35.84 557.3-34.89 557.3-33.5L557.3-33.5Q557.3-32.15 556.3-31.2 555.3-30.25 553.86-30.25L553.86-30.25Q552.45-30.25 551.43-31.2 550.42-32.15 550.42-33.5ZM556.67-24.15L556.67-2.44 560.92-2.44 560.92-0.61Q560.09-0.15 558.18 0.15 556.28 0.44 554.52 0.44L554.52 0.44Q553.03 0.44 552.02 0.01 551-0.42 551-1.9L551-1.9 551-22.61 546.71-22.61 546.71-24.44Q547.39-24.76 548.76-24.98 550.13-25.2 551.71-25.32 553.3-25.44 554.57-25.44L554.57-25.44Q555.57-25.44 556.12-25.28 556.67-25.12 556.67-24.15L556.67-24.15ZM592.26-12.45L592.26-12.45Q592.26-8.47 590.47-5.51 588.67-2.54 585.65-0.89 582.62 0.76 578.88 0.76L578.88 0.76Q575.12 0.76 572.07-0.9 569.02-2.56 567.23-5.53 565.43-8.5 565.43-12.45L565.43-12.45Q565.43-16.46 567.23-19.45 569.02-22.44 572.07-24.1 575.12-25.76 578.88-25.76L578.88-25.76Q582.64-25.76 585.67-24.1 588.7-22.44 590.48-19.45 592.26-16.46 592.26-12.45ZM571.46-12.5L571.46-12.5Q571.46-9.74 572.07-7.3 572.68-4.86 574.29-3.36 575.9-1.86 578.88-1.86L578.88-1.86Q581.86-1.86 583.45-3.36 585.04-4.86 585.63-7.3 586.23-9.74 586.23-12.5L586.23-12.5Q586.23-15.28 585.63-17.71 585.04-20.14 583.45-21.64 581.86-23.14 578.88-23.14L578.88-23.14Q575.9-23.14 574.29-21.64 572.68-20.14 572.07-17.71 571.46-15.28 571.46-12.5ZM601.02-1.9L601.02-22.56 596.73-22.56 596.73-24.39Q597.41-24.71 598.78-24.93 600.15-25.15 601.73-25.27 603.32-25.39 604.59-25.39L604.59-25.39Q605.59-25.39 606.14-25.23 606.69-25.07 606.69-24.1L606.69-24.1 606.69-22.9Q607.18-23.07 608.74-23.77 610.3-24.46 612.49-25.11 614.67-25.76 616.99-25.76L616.99-25.76Q619.82-25.76 621.26-24.74 622.7-23.73 623.22-21.98 623.73-20.24 623.73-17.99L623.73-17.99 623.73-2.44 627.98-2.44 627.98-0.61Q627.15-0.15 625.24 0.15 623.34 0.44 621.58 0.44L621.58 0.44Q620.09 0.44 619.09 0.01 618.09-0.42 618.09-1.9L618.09-1.9 618.09-17.5Q618.09-19.97 617.43-21.06 616.77-22.14 614.67-22.14L614.67-22.14Q613.67-22.14 612.36-21.94 611.06-21.73 609.8-21.46 608.54-21.19 607.68-20.97 606.81-20.75 606.69-20.7L606.69-20.7 606.69-7.35Q606.69-4.35 606.96-2.69 607.23-1.03 607.37-0.34L607.37-0.34Q606.71 0.02 605.69 0.23 604.66 0.44 603.88 0.44L603.88 0.44Q602.64 0.44 601.83-0.06 601.02-0.56 601.02-1.9L601.02-1.9ZM640.45-2.49L640.45-2.49Q640.6-1.76 640.6-0.9L640.6-0.9Q640.6 0.71 640.05 2.5 639.5 4.3 638.28 5.79 637.06 7.28 635.05 8.01L635.05 8.01Q634.86 8.11 634.62 8.11L634.62 8.11Q634.37 8.11 634.19 7.96 634.01 7.81 634.01 7.35L634.01 7.35 634.01 6.01Q635.15 5.3 635.93 3.87 636.72 2.44 637.06 0.9L637.06 0.9Q637.01 0.95 636.76 0.95L636.76 0.95Q635.2 0.95 634.2-0.05 633.2-1.05 633.2-2.49L633.2-2.49Q633.2-3.88 634.2-4.87 635.2-5.86 636.76-5.86L636.76-5.86Q638.38-5.86 639.29-4.87 640.21-3.88 640.45-2.49ZM673.45-20.85L673.45-20.85Q675.65-19.92 677.88-18.86 680.12-17.8 681.99-16.46 683.85-15.11 684.98-13.32 686.1-11.52 686.1-9.11L686.1-9.11Q686.1-5.93 684.48-3.69 682.85-1.44 680.17-0.24 677.48 0.95 674.31 0.95L674.31 0.95Q671.13 0.95 667.95 0.13 664.76-0.68 661.95-2.54L661.95-2.54Q661.42-2.88 660.9-3.45 660.39-4.03 660.39-4.64L660.39-4.64Q660.39-5.15 660.76-5.54L660.76-5.54 663.25-8.5Q664.81-7.25 666.76-5.79 668.72-4.32 670.76-3.26 672.79-2.2 674.55-2.2L674.55-2.2Q676.04-2.2 677.37-2.83 678.7-3.47 679.54-4.63 680.39-5.79 680.39-7.4L680.39-7.4Q680.39-9.45 679.02-11.04 677.65-12.62 675.49-13.87 673.33-15.11 670.94-16.09L670.94-16.09Q667.01-17.75 664.99-19.43 662.98-21.12 662.28-22.79 661.59-24.46 661.59-26.05L661.59-26.05Q661.59-28.76 662.88-30.57 664.18-32.37 666.28-33.44 668.38-34.5 670.84-34.95 673.31-35.4 675.65-35.4L675.65-35.4Q676.68-35.4 678.18-35.27 679.68-35.13 681.17-34.83 682.66-34.52 683.65-33.98 684.63-33.45 684.63-32.64L684.63-32.64Q684.63-32.25 684.34-31.69L684.34-31.69 682.39-28.34Q680.24-29.59 677.77-30.87 675.31-32.15 672.4-32.15L672.4-32.15Q670.33-32.15 668.77-30.87 667.2-29.59 667.2-27L667.2-27Q667.2-25.54 668.09-24.4 668.99-23.27 670.41-22.41 671.84-21.56 673.45-20.85ZM707.7-1.9L707.7-2.15Q707.7-2.17 707.01-1.73 706.31-1.29 705.13-0.71 703.94-0.12 702.5 0.32 701.06 0.76 699.55 0.76L699.55 0.76Q697.43 0.76 695.62-0.01 693.81-0.78 692.71-2.4 691.61-4.03 691.61-6.54L691.61-6.54Q691.61-9.35 693.24-11.04 694.86-12.72 697.72-13.46 700.57-14.21 704.26-14.21L704.26-14.21 707.7-14.21 707.7-16.04Q707.7-17.94 707.46-19.58 707.22-21.22 706.4-22.2 705.58-23.19 703.85-23.19L703.85-23.19Q702.21-23.19 700.54-22.44 698.87-21.68 697.35-20.61 695.84-19.53 694.62-18.55L694.62-18.55 692.62-21.24Q692.25-21.68 692.25-22.14L692.25-22.14Q692.25-22.95 693.25-23.61 694.25-24.27 695.81-24.76 697.38-25.24 699.12-25.5 700.87-25.76 702.36-25.76L702.36-25.76Q705.36-25.76 707.86-24.79 710.36-23.83 711.87-21.69 713.37-19.56 713.37-16.04L713.37-16.04 713.37-2.44 717.62-2.44 717.62-0.61Q716.79-0.15 714.88 0.15 712.98 0.44 711.19 0.44L711.19 0.44Q710 0.44 708.89 0.04 707.78-0.37 707.7-1.9L707.7-1.9ZM701.26-2.86L701.26-2.86Q702.11-2.86 703.21-3.08 704.31-3.3 705.34-3.6 706.36-3.91 707.03-4.13 707.7-4.35 707.7-4.35L707.7-4.35 707.7-11.21 703.6-11.21Q702.38-11.21 700.88-10.88 699.38-10.55 698.29-9.61 697.21-8.67 697.21-6.81L697.21-6.81Q697.21-5.08 698.26-3.97 699.31-2.86 701.26-2.86ZM727.65-24.29L727.65-24.29Q727.67-24.22 728.22-22.77 728.77-21.31 729.62-19.07 730.48-16.82 731.46-14.31 732.43-11.79 733.32-9.52 734.21-7.25 734.85-5.79 735.48-4.32 735.63-4.2L735.63-4.2Q736.44-5.47 737.32-7.25 738.19-9.03 738.96-11.02 739.73-13.01 740.21-14.95 740.68-16.89 740.68-18.51L740.68-18.51Q740.68-20.24 740.23-21.44 739.78-22.63 739.44-23.46L739.44-23.46 742.64-25.05Q743.49-25.44 744.03-25.44L744.03-25.44Q744.93-25.44 745.26-24.63 745.59-23.83 745.59-23.05L745.59-23.05Q745.59-21.51 744.94-19.3 744.3-17.09 743.24-14.51 742.17-11.94 740.92-9.3 739.66-6.67 738.43-4.26 737.19-1.86 736.19 0L736.19 0 733.63 0Q732.8 0 732.03-0.45 731.26-0.9 730.85-1.9L730.85-1.9 722.74-20.95 718.88-19.24 718.13-20.95Q718.71-21.46 719.77-22.2 720.84-22.95 722.06-23.69 723.28-24.44 724.39-24.94 725.5-25.44 726.18-25.44L726.18-25.44Q726.65-25.44 727.02-25.18 727.4-24.93 727.65-24.29ZM752.99-33.5L752.99-33.5Q752.99-34.89 754-35.84 755.01-36.79 756.43-36.79L756.43-36.79Q757.87-36.79 758.87-35.84 759.87-34.89 759.87-33.5L759.87-33.5Q759.87-32.15 758.87-31.2 757.87-30.25 756.43-30.25L756.43-30.25Q755.01-30.25 754-31.2 752.99-32.15 752.99-33.5ZM759.24-24.15L759.24-2.44 763.48-2.44 763.48-0.61Q762.65-0.15 760.75 0.15 758.85 0.44 757.09 0.44L757.09 0.44Q755.6 0.44 754.59 0.01 753.57-0.42 753.57-1.9L753.57-1.9 753.57-22.61 749.28-22.61 749.28-24.44Q749.96-24.76 751.33-24.98 752.69-25.2 754.28-25.32 755.87-25.44 757.14-25.44L757.14-25.44Q758.14-25.44 758.69-25.28 759.24-25.12 759.24-24.15L759.24-24.15ZM771.05-1.9L771.05-22.56 766.75-22.56 766.75-24.39Q767.44-24.71 768.8-24.93 770.17-25.15 771.76-25.27 773.35-25.39 774.62-25.39L774.62-25.39Q775.62-25.39 776.17-25.23 776.71-25.07 776.71-24.1L776.71-24.1 776.71-22.9Q777.2-23.07 778.77-23.77 780.33-24.46 782.51-25.11 784.7-25.76 787.02-25.76L787.02-25.76Q789.85-25.76 791.29-24.74 792.73-23.73 793.24-21.98 793.76-20.24 793.76-17.99L793.76-17.99 793.76-2.44 798-2.44 798-0.61Q797.17-0.15 795.27 0.15 793.37 0.44 791.61 0.44L791.61 0.44Q790.12 0.44 789.12 0.01 788.12-0.42 788.12-1.9L788.12-1.9 788.12-17.5Q788.12-19.97 787.46-21.06 786.8-22.14 784.7-22.14L784.7-22.14Q783.7-22.14 782.39-21.94 781.08-21.73 779.83-21.46 778.57-21.19 777.7-20.97 776.84-20.75 776.71-20.7L776.71-20.7 776.71-7.35Q776.71-4.35 776.98-2.69 777.25-1.03 777.4-0.34L777.4-0.34Q776.74 0.02 775.71 0.23 774.69 0.44 773.91 0.44L773.91 0.44Q772.66 0.44 771.86-0.06 771.05-0.56 771.05-1.9L771.05-1.9ZM805.33 3.3L805.33 3.3Q807.13 6.01 809.66 7.51 812.19 9.01 815.87 9.01L815.87 9.01Q816.82 9.01 818.02 8.86 819.22 8.72 820.32 8.31 821.41 7.91 822.13 7.15 822.85 6.4 822.85 5.2L822.85 5.2Q822.85 4.13 821.83 3.52 820.8 2.91 819.11 2.56 817.41 2.22 815.38 1.97 813.36 1.71 811.33 1.34 809.3 0.98 807.61 0.33 805.91-0.32 804.89-1.45 803.86-2.59 803.86-4.39L803.86-4.39Q803.86-5.71 804.47-6.48 805.08-7.25 805.96-7.74 806.84-8.23 807.62-8.64L807.62-8.64Q805.47-9.86 804.24-11.84 803.01-13.82 803.01-16.41L803.01-16.41Q803.01-19.31 804.53-21.4 806.06-23.49 808.67-24.62 811.28-25.76 814.55-25.76L814.55-25.76Q817.63-25.76 820.16-24.72 822.68-23.68 824.22-21.8L824.22-21.8 825.66-23.61Q827.27-25.59 828.35-26.17 829.42-26.76 830.76-26.76L830.76-26.76Q831.4-26.76 832.23-26.38 833.06-26 833.06-25.15L833.06-25.15 833.06-21.85Q830.81-21.85 829.43-21.78 828.05-21.7 827.14-21.3 826.22-20.9 825.32-19.95L825.32-19.95Q825.69-19.12 825.89-18.26 826.1-17.41 826.1-16.36L826.1-16.36Q826.1-13.48 824.59-11.38 823.07-9.28 820.46-8.14 817.85-7.01 814.55-7.01L814.55-7.01Q812.01-7.01 809.77-7.69L809.77-7.69Q807.77-6.67 807.77-5.54L807.77-5.54Q807.77-4.42 808.87-3.87 809.96-3.32 811.77-3.06 813.58-2.81 815.74-2.62 817.9-2.44 820.07-2.12 822.24-1.81 824.05-1.11 825.86-0.42 826.96 0.87 828.05 2.15 828.05 4.3L828.05 4.3Q828.05 6.88 826.19 8.61 824.32 10.33 821.37 11.17 818.41 12.01 815.16 12.01L815.16 12.01Q812.6 12.01 810.06 11.54 807.52 11.06 805.41 10.24 803.3 9.42 802.03 8.37 800.76 7.32 800.76 6.15L800.76 6.15Q800.76 5.44 801.82 4.82 802.88 4.2 805.33 3.3ZM808.77-16.41L808.77-16.41Q808.77-13.16 810.18-11.3 811.6-9.45 814.55-9.45L814.55-9.45Q817.53-9.45 818.95-11.3 820.36-13.16 820.36-16.41L820.36-16.41Q820.36-19.68 818.95-21.48 817.53-23.29 814.55-23.29L814.55-23.29Q811.6-23.29 810.18-21.48 808.77-19.68 808.77-16.41ZM858.69-33.69L858.69-3.44 863.11-3.44Q866.38-3.44 869.69-3.89 873-4.35 876.15-5.35L876.15-5.35Q876.12-5.35 876.39-4.47 876.66-3.59 876.66-2.59L876.66-2.59Q876.66-1.15 875.65-0.55 874.63 0.05 872.23 0.17 869.82 0.29 865.65 0.29L865.65 0.29Q863.43 0.29 861.25 0.24 859.08 0.2 857.38 0.13 855.69 0.07 854.86 0L854.86 0Q853.73-0.12 853.34-0.59 852.95-1.05 852.95-2.1L852.95-2.1 852.95-31.91 848.24-31.91 848.24-33.84Q849-34.23 851.05-34.59 853.1-34.96 855.49-34.96L855.49-34.96Q857.37-34.96 858.03-34.8 858.69-34.64 858.69-33.69L858.69-33.69ZM882.27-33.5L882.27-33.5Q882.27-34.89 883.28-35.84 884.3-36.79 885.71-36.79L885.71-36.79Q887.15-36.79 888.15-35.84 889.16-34.89 889.16-33.5L889.16-33.5Q889.16-32.15 888.15-31.2 887.15-30.25 885.71-30.25L885.71-30.25Q884.3-30.25 883.28-31.2 882.27-32.15 882.27-33.5ZM888.52-24.15L888.52-2.44 892.77-2.44 892.77-0.61Q891.94-0.15 890.03 0.15 888.13 0.44 886.37 0.44L886.37 0.44Q884.88 0.44 883.87 0.01 882.86-0.42 882.86-1.9L882.86-1.9 882.86-22.61 878.56-22.61 878.56-24.44Q879.24-24.76 880.61-24.98 881.98-25.2 883.57-25.32 885.15-25.44 886.42-25.44L886.42-25.44Q887.42-25.44 887.97-25.28 888.52-25.12 888.52-24.15L888.52-24.15ZM904.58-24.29L904.58-24.29Q904.61-24.22 905.16-22.77 905.71-21.31 906.56-19.07 907.42-16.82 908.39-14.31 909.37-11.79 910.26-9.52 911.15-7.25 911.79-5.79 912.42-4.32 912.57-4.2L912.57-4.2Q913.37-5.47 914.25-7.25 915.13-9.03 915.9-11.02 916.67-13.01 917.14-14.95 917.62-16.89 917.62-18.51L917.62-18.51Q917.62-20.24 917.17-21.44 916.72-22.63 916.38-23.46L916.38-23.46 919.57-25.05Q920.43-25.44 920.96-25.44L920.96-25.44Q921.87-25.44 922.2-24.63 922.53-23.83 922.53-23.05L922.53-23.05Q922.53-21.51 921.88-19.3 921.23-17.09 920.17-14.51 919.11-11.94 917.85-9.3 916.59-6.67 915.36-4.26 914.13-1.86 913.13 0L913.13 0 910.56 0Q909.73 0 908.97-0.45 908.2-0.9 907.78-1.9L907.78-1.9 899.68-20.95 895.82-19.24 895.06-20.95Q895.65-21.46 896.71-22.2 897.77-22.95 898.99-23.69 900.21-24.44 901.32-24.94 902.43-25.44 903.12-25.44L903.12-25.44Q903.58-25.44 903.96-25.18 904.34-24.93 904.58-24.29ZM927.43-12.5L927.43-12.5Q927.43-16.38 929.08-19.37 930.73-22.36 933.82-24.06 936.9-25.76 941.23-25.76L941.23-25.76Q944.47-25.76 946.8-24.41 949.14-23.07 950.38-20.9 951.63-18.73 951.63-16.21L951.63-16.21Q951.63-15.06 951.33-13.92 951.04-12.77 950.22-12.01 949.4-11.25 947.77-11.25L947.77-11.25 933.17-11.25Q933.66-6.86 936.64-4.53 939.61-2.2 943.91-2.2L943.91-2.2Q946.91-2.2 950.16-3.25L950.16-3.25 950.97-1.61Q948.99-0.27 946.45 0.34 943.91 0.95 941.47 0.95L941.47 0.95Q938.78 0.95 936.27 0.11 933.76-0.73 931.77-2.42 929.78-4.1 928.6-6.62 927.43-9.13 927.43-12.5ZM933.12-14.26L945.77-14.26Q945.91-14.75 945.96-15.23 946.01-15.72 946.01-16.26L946.01-16.26Q946.01-17.87 945.32-19.43 944.62-21 943.26-22.02 941.91-23.05 939.93-23.05L939.93-23.05Q937.44-23.05 935.99-21.81 934.54-20.58 933.89-18.58 933.24-16.58 933.12-14.26L933.12-14.26ZM957.17-3.2L959.12-5.91Q960-5.27 961.35-4.32 962.71-3.37 964.36-2.64 966-1.9 967.71-1.9L967.71-1.9Q969.32-1.9 970.59-2.84 971.86-3.78 971.86-5.49L971.86-5.49Q971.86-6.84 970.79-7.75 969.71-8.67 968.27-9.31 966.83-9.96 965.71-10.45L965.71-10.45Q963.81-11.3 961.96-12.28 960.12-13.26 958.91-14.78 957.7-16.31 957.7-18.8L957.7-18.8Q957.7-21.31 959.3-22.84 960.9-24.37 963.29-25.06 965.69-25.76 968.1-25.76L968.1-25.76Q969.62-25.76 971.28-25.57 972.94-25.39 974.1-24.98 975.26-24.56 975.26-23.85L975.26-23.85Q975.26-23.68 975.11-23.34L975.11-23.34 973.45-20.14Q972.84-20.56 971.66-21.2 970.47-21.85 968.99-22.38 967.52-22.9 965.96-22.9L965.96-22.9Q964.27-22.9 963.2-22.12 962.12-21.34 962.12-19.9L962.12-19.9Q962.12-18.41 963.2-17.41 964.27-16.41 965.96-15.66 967.64-14.92 969.52-14.21 971.4-13.5 973.08-12.59 974.77-11.67 975.84-10.33 976.92-8.98 976.92-6.96L976.92-6.96Q976.92-4.81 976-3.33 975.09-1.86 973.58-0.95 972.08-0.05 970.28 0.35 968.47 0.76 966.71 0.76L966.71 0.76Q965.2 0.76 963.51 0.43 961.83 0.1 960.35-0.42 958.87-0.93 957.95-1.5 957.02-2.08 957.02-2.59L957.02-2.59Q957.02-2.91 957.17-3.2L957.17-3.2Z" opacity="1" transform="matrix(1,0,0,1,0,0)" fill="#010c80" class="slogan-text-1" data-fill-palette-color="secondary" id="text-1"></path></svg></g></svg></g></svg></g></svg></g><g><svg viewBox="0 0 100.35035126695139 98.2899745787187" height="98.2899745787187" width="100.35035126695139"><g><svg xmlns="http://www.w3.org/2000/svg" xmlns:xlink="http://www.w3.org/1999/xlink" version="1.1" baseProfile="tiny" x="0" y="0" viewBox="16.000647815947577 16.65699992856284 63.999786176842534 62.685753233003" xml:space="preserve" height="98.2899745787187" width="100.35035126695139" class="icon-icon-0" data-fill-palette-color="accent" id="icon-0"><g fill="#02aee0" data-fill-palette-color="accent"><g fill="#02aee0" data-fill-palette-color="accent"><path d="M80 47.871A8.113 8.113 0 0 1 71.879 55.988 8.113 8.113 0 0 1 63.764 47.871C63.764 43.389 71.159 36.071 75.643 36.071 80.135 36.071 80 43.389 80 47.871" fill="#02aee0" data-fill-palette-color="accent"></path><path d="M32.239 47.871A8.113 8.113 0 0 1 24.117 55.988 8.11 8.11 0 0 1 16.004 47.871C16.004 43.389 15.727 36.071 20.209 36.071 24.7 36.071 32.239 43.389 32.239 47.871" fill="#02aee0" data-fill-palette-color="accent"></path><path d="M66.332 31.636A8.114 8.114 0 0 1 58.213 39.754 8.115 8.115 0 0 1 50.096 31.636C50.096 27.155 53.729 16.657 58.213 16.657 62.701 16.656 66.332 27.154 66.332 31.636" fill="#02aee0" data-fill-palette-color="accent"></path><path d="M68.109 63.564C70.287 72.538 61.101 79.592 47.572 79.336 34.057 79.079 25.031 71.818 27.403 63.101 29.771 54.395 38.956 47.33 47.923 47.33 56.9 47.331 65.932 54.603 68.109 63.564" fill="#02aee0" data-fill-palette-color="accent"></path><path d="M45.769 31.636A8.115 8.115 0 0 1 37.649 39.754 8.11 8.11 0 0 1 29.534 31.636C29.534 27.155 33.164 16.657 37.649 16.657 42.137 16.656 45.769 27.154 45.769 31.636" fill="#02aee0" data-fill-palette-color="accent"></path></g></g></svg></g></svg></g></svg></g><defs></defs></svg><rect width="395.52" height="74.34244164063396" fill="none" stroke="none" visibility="hidden"></rect></g></svg></g></svg>